<svg width="370" height="370" viewBox="0 0 370 370" fill="none" xmlns="http://www.w3.org/2000/svg">
<rect width="370" height="370" fill="black"/>
<path d="M98.44 196.328C98.44 197.416 98.056 198.376 97.288 199.208C96.584 199.976 95.656 200.648 94.504 201.224C93.416 201.736 92.2 202.152 90.856 202.472C89.512 202.792 88.232 203.048 87.016 203.24C85.8 203.368 84.712 203.464 83.752 203.528C82.856 203.528 82.28 203.528 82.024 203.528C80.616 203.528 79.528 203.304 78.76 202.856C77.992 202.408 77.608 201.608 77.608 200.456C77.608 200.072 77.64 199.752 77.704 199.496C77.768 199.176 78.024 199.016 78.472 199.016C78.664 199.016 78.984 199.08 79.432 199.208C79.88 199.272 80.232 199.304 80.488 199.304C80.744 199.304 81.544 199.272 82.888 199.208C84.296 199.08 85.768 198.888 87.304 198.632C88.904 198.376 90.312 198.024 91.528 197.576C92.808 197.064 93.448 196.424 93.448 195.656C93.448 195.528 92.776 195.144 91.432 194.504C90.152 193.8 88.2 192.648 85.576 191.048C83.528 189.768 82.088 188.488 81.256 187.208C80.424 185.864 80.008 184.072 80.008 181.832C80.008 180.424 80.296 179.272 80.872 178.376C81.512 177.48 82.344 176.776 83.368 176.264C84.456 175.752 85.672 175.4 87.016 175.208C88.424 174.952 89.896 174.824 91.432 174.824C91.56 174.824 91.944 174.888 92.584 175.016C93.288 175.144 94.024 175.368 94.792 175.688C95.56 175.944 96.232 176.296 96.808 176.744C97.448 177.128 97.768 177.576 97.768 178.088C97.768 178.216 97.64 178.408 97.384 178.664C97.192 178.92 96.84 179.4 96.328 180.104C96.136 180.04 95.784 179.944 95.272 179.816C94.824 179.688 94.28 179.56 93.64 179.432C93.064 179.24 92.456 179.112 91.816 179.048C91.176 178.92 90.664 178.856 90.28 178.856C88.616 178.856 87.272 179.176 86.248 179.816C85.224 180.392 84.712 181.544 84.712 183.272C84.712 184.104 85.032 184.872 85.672 185.576C86.376 186.28 87.24 186.952 88.264 187.592C89.288 188.168 90.376 188.776 91.528 189.416C92.744 189.992 93.864 190.632 94.888 191.336C95.912 192.04 96.744 192.808 97.384 193.64C98.088 194.408 98.44 195.304 98.44 196.328ZM123.837 188.264C123.837 189.672 123.645 191.016 123.261 192.296C122.877 193.576 122.365 194.696 121.725 195.656C121.085 196.616 120.317 197.384 119.421 197.96C118.589 198.472 117.661 198.728 116.637 198.728C114.845 198.728 113.437 198.216 112.413 197.192C111.389 196.168 110.589 194.984 110.013 193.64C109.501 192.296 109.149 190.952 108.957 189.608C108.829 188.2 108.765 187.144 108.765 186.44C108.765 185.288 108.925 184.008 109.245 182.6C109.629 181.128 110.109 179.784 110.685 178.568C111.325 177.352 112.029 176.328 112.797 175.496C113.565 174.664 114.365 174.248 115.197 174.248C115.389 174.248 115.677 174.312 116.061 174.44C116.509 174.568 116.957 174.76 117.405 175.016C117.853 175.272 118.237 175.592 118.557 175.976C118.941 176.36 119.197 176.808 119.325 177.32C120.029 177.384 120.733 177.64 121.437 178.088C122.141 178.536 122.525 178.888 122.589 179.144C123.101 180.808 123.421 182.472 123.549 184.136C123.741 185.8 123.837 187.176 123.837 188.264ZM119.517 186.536C119.517 185.576 119.421 184.584 119.229 183.56C119.037 182.472 118.653 181.384 118.077 180.296C117.949 180.36 117.789 180.392 117.597 180.392C117.341 180.392 117.117 180.36 116.924 180.296C116.797 180.232 116.669 180.2 116.541 180.2C115.773 180.2 115.165 180.424 114.717 180.872C114.269 181.256 113.917 181.8 113.661 182.504C113.469 183.144 113.341 183.848 113.277 184.616C113.213 185.384 113.181 186.12 113.181 186.824C113.181 187.528 113.213 188.328 113.277 189.224C113.341 190.056 113.469 190.856 113.661 191.624C113.917 192.392 114.237 193.064 114.621 193.64C115.005 194.152 115.517 194.408 116.157 194.408C116.797 194.408 117.341 194.088 117.789 193.448C118.237 192.744 118.589 191.944 118.845 191.048C119.101 190.152 119.261 189.288 119.325 188.456C119.453 187.56 119.517 186.92 119.517 186.536ZM146.327 206.216C146.327 206.728 146.135 207.112 145.751 207.368C145.367 207.624 144.919 207.752 144.407 207.752C143.831 207.752 143.223 207.208 142.583 206.12C142.007 205.032 141.431 203.656 140.855 201.992C140.279 200.328 139.735 198.536 139.223 196.616C138.711 194.632 138.263 192.808 137.879 191.144C137.495 189.416 137.175 187.976 136.919 186.824C136.727 185.672 136.631 185.032 136.631 184.904C136.631 184.648 136.503 183.976 136.247 182.888C136.055 181.8 135.767 180.104 135.383 177.8C135.063 175.496 134.679 172.52 134.231 168.872C133.847 165.16 133.431 160.584 132.983 155.144C132.983 154.568 133.079 153.832 133.271 152.936C133.463 152.04 133.911 151.592 134.615 151.592C135.511 151.592 136.183 152.2 136.631 153.416C137.143 154.632 137.527 156.136 137.783 157.928C138.103 159.72 138.327 161.608 138.455 163.592C138.583 165.512 138.743 167.208 138.935 168.68C139.191 170.728 139.415 172.584 139.607 174.248C139.863 175.912 140.087 177.576 140.279 179.24C140.535 180.84 140.823 182.536 141.143 184.328C141.527 186.12 141.975 188.104 142.487 190.28L146.327 206.216ZM159.473 164.84C159.473 164.968 159.249 165.224 158.801 165.608C158.353 165.992 157.809 166.408 157.169 166.856C156.593 167.24 155.985 167.592 155.345 167.912C154.705 168.232 154.193 168.392 153.809 168.392C153.553 168.392 153.201 168.392 152.753 168.392C152.369 168.328 151.953 168.2 151.505 168.008C151.121 167.816 150.769 167.56 150.449 167.24C150.129 166.856 149.969 166.376 149.969 165.8C149.969 164.904 150.289 164.072 150.929 163.304C151.569 162.472 152.401 162.056 153.425 162.056C153.617 162.056 154.033 162.152 154.673 162.344C155.377 162.472 156.081 162.664 156.785 162.92C157.489 163.176 158.097 163.464 158.609 163.784C159.185 164.104 159.473 164.456 159.473 164.84ZM162.641 200.744C162.641 201.192 162.289 201.576 161.585 201.896C160.945 202.216 160.465 202.376 160.145 202.376C159.505 202.376 158.929 201.96 158.417 201.128C157.905 200.296 157.457 199.336 157.073 198.248C156.689 197.16 156.369 196.136 156.113 195.176C155.857 194.152 155.665 193.448 155.537 193.064C155.345 192.424 155.089 191.656 154.769 190.76C154.449 189.864 154.129 189 153.809 188.168C153.553 187.336 153.329 186.6 153.137 185.96C152.945 185.32 152.849 184.968 152.849 184.904C152.849 184.008 153.009 183.176 153.329 182.408C153.713 181.64 154.161 181.256 154.673 181.256C155.249 181.256 155.857 181.704 156.497 182.6C157.137 183.496 157.745 184.648 158.321 186.056C158.961 187.4 159.537 188.904 160.049 190.568C160.561 192.168 161.009 193.704 161.393 195.176C161.777 196.584 162.065 197.832 162.257 198.92C162.513 199.944 162.641 200.552 162.641 200.744ZM200.107 140.168C200.171 140.296 200.203 140.52 200.203 140.84C200.203 141.16 200.203 141.512 200.203 141.896C200.203 142.344 200.043 142.568 199.723 142.568C199.595 142.568 199.435 142.536 199.243 142.472C199.051 142.408 198.891 142.344 198.763 142.28C197.611 141.768 196.203 141.128 194.539 140.36C192.939 139.528 191.115 139.112 189.067 139.112C186.763 139.112 184.907 139.976 183.499 141.704C182.091 143.432 181.003 145.448 180.235 147.752C179.531 149.992 179.051 152.2 178.795 154.376C178.603 156.552 178.507 158.12 178.507 159.08C178.507 159.784 178.603 160.904 178.795 162.44C179.051 163.912 179.371 165.448 179.755 167.048C180.139 168.648 180.587 170.12 181.099 171.464C181.611 172.744 182.123 173.544 182.635 173.864C183.019 173.864 183.691 173.832 184.651 173.768C185.675 173.704 186.507 173.672 187.147 173.672C188.235 173.672 189.259 173.768 190.219 173.96C191.179 174.152 192.171 174.248 193.195 174.248C193.451 174.248 193.835 174.248 194.347 174.248C194.859 174.248 195.371 174.28 195.883 174.344C196.459 174.408 196.939 174.536 197.323 174.728C197.707 174.856 197.899 175.048 197.899 175.304C197.899 175.624 197.675 175.912 197.227 176.168C196.779 176.424 196.267 176.648 195.691 176.84C195.115 176.968 194.539 177.064 193.963 177.128C193.387 177.192 192.939 177.224 192.619 177.224C192.299 177.224 191.883 177.224 191.371 177.224C190.859 177.16 190.283 177.096 189.643 177.032C189.067 176.968 188.491 176.936 187.915 176.936C187.403 176.872 186.955 176.84 186.571 176.84C185.547 176.84 184.907 176.968 184.651 177.224C184.459 177.416 184.363 177.832 184.363 178.472C184.363 179.432 184.779 180.744 185.611 182.408C186.507 184.008 187.467 185.736 188.491 187.592C189.515 189.448 190.443 191.368 191.275 193.352C192.171 195.336 192.619 197.16 192.619 198.824C192.619 199.144 192.523 199.752 192.331 200.648C192.203 201.48 191.979 202.344 191.659 203.24C191.403 204.136 191.019 204.936 190.507 205.64C189.995 206.344 189.419 206.696 188.779 206.696C188.267 206.696 187.787 206.568 187.339 206.312C186.955 205.992 186.763 205.48 186.763 204.776C186.763 203.752 187.019 202.792 187.531 201.896C188.107 201 188.395 200.04 188.395 199.016C188.395 198.504 188.139 197.64 187.627 196.424C187.179 195.208 186.603 193.864 185.899 192.392C185.195 190.856 184.427 189.256 183.595 187.592C182.763 185.928 181.963 184.424 181.195 183.08C180.491 181.672 179.883 180.52 179.371 179.624C178.859 178.728 178.571 178.248 178.507 178.184C177.227 178.632 175.915 179.08 174.571 179.528C173.227 179.976 172.011 180.648 170.923 181.544C170.475 181.992 170.059 182.216 169.675 182.216C169.035 182.216 168.427 181.96 167.851 181.448C167.339 180.936 167.083 180.36 167.083 179.72C167.083 179.016 167.275 178.472 167.659 178.088C168.107 177.64 168.523 177.32 168.907 177.128C169.483 176.808 170.379 176.456 171.595 176.072C172.811 175.688 174.027 175.368 175.243 175.112C175.691 174.984 176.107 174.888 176.491 174.824C176.875 174.696 177.067 174.472 177.067 174.152C176.875 173.512 176.587 172.68 176.203 171.656C175.883 170.568 175.531 169.288 175.147 167.816C174.827 166.344 174.539 164.712 174.283 162.92C174.027 161.064 173.899 159.08 173.899 156.968C173.899 154.664 174.155 152.232 174.667 149.672C175.243 147.112 176.107 144.776 177.259 142.664C178.475 140.488 179.979 138.728 181.771 137.384C183.563 135.976 185.707 135.272 188.203 135.272C189.355 135.272 190.635 135.4 192.043 135.656C193.451 135.848 194.731 136.168 195.883 136.616C197.099 137 198.091 137.512 198.859 138.152C199.691 138.728 200.107 139.4 200.107 140.168ZM232.903 198.92C232.967 199.048 232.999 199.24 232.999 199.496C232.999 199.88 232.711 200.456 232.135 201.224C231.943 201.48 231.527 201.896 230.887 202.472C230.247 203.048 229.383 203.624 228.295 204.2C227.207 204.776 225.863 205.288 224.263 205.736C222.727 206.184 220.903 206.408 218.791 206.408C217.319 206.408 215.879 206.088 214.471 205.448C213.063 204.744 211.815 203.752 210.727 202.472C209.639 201.128 208.743 199.496 208.039 197.576C207.335 195.592 206.983 193.288 206.983 190.664C206.983 188.168 207.303 185.832 207.943 183.656C208.583 181.48 209.383 179.56 210.343 177.896C211.367 176.232 212.487 174.92 213.703 173.96C214.919 173 216.103 172.52 217.255 172.52C218.279 172.52 219.303 172.744 220.327 173.192C221.415 173.576 222.375 174.088 223.207 174.728C224.103 175.368 224.807 176.104 225.319 176.936C225.831 177.704 226.087 178.504 226.087 179.336C226.087 180.296 225.639 181.288 224.743 182.312C223.911 183.336 222.887 184.296 221.671 185.192C220.455 186.024 219.239 186.728 218.023 187.304C216.807 187.816 215.847 188.072 215.143 188.072C214.759 188.072 214.407 187.912 214.087 187.592C213.831 187.208 213.703 186.76 213.703 186.248C213.703 185.352 214.087 184.648 214.855 184.136C215.687 183.624 216.583 183.176 217.543 182.792C218.503 182.344 219.367 181.832 220.135 181.256C220.967 180.68 221.383 179.88 221.383 178.856C221.383 178.728 221.223 178.408 220.903 177.896C220.583 177.384 219.719 177.128 218.311 177.128C217.671 177.128 216.935 177.512 216.103 178.28C215.271 178.984 214.471 179.976 213.703 181.256C212.935 182.472 212.295 183.944 211.783 185.672C211.271 187.336 211.015 189.16 211.015 191.144C211.015 192.808 211.303 194.312 211.879 195.656C212.519 197 213.319 198.152 214.279 199.112C215.239 200.008 216.359 200.712 217.639 201.224C218.919 201.736 220.231 201.992 221.575 201.992C222.535 201.992 223.559 201.8 224.647 201.416C225.799 200.968 226.855 200.52 227.815 200.072C228.839 199.56 229.703 199.112 230.407 198.728C231.175 198.28 231.655 198.056 231.847 198.056C232.039 198.056 232.231 198.152 232.423 198.344C232.679 198.536 232.839 198.728 232.903 198.92ZM261.284 196.328C261.284 197.416 260.9 198.376 260.132 199.208C259.428 199.976 258.5 200.648 257.348 201.224C256.26 201.736 255.044 202.152 253.7 202.472C252.356 202.792 251.076 203.048 249.86 203.24C248.644 203.368 247.556 203.464 246.596 203.528C245.7 203.528 245.124 203.528 244.868 203.528C243.46 203.528 242.372 203.304 241.604 202.856C240.836 202.408 240.452 201.608 240.452 200.456C240.452 200.072 240.484 199.752 240.548 199.496C240.612 199.176 240.868 199.016 241.316 199.016C241.508 199.016 241.828 199.08 242.276 199.208C242.724 199.272 243.076 199.304 243.332 199.304C243.588 199.304 244.388 199.272 245.732 199.208C247.14 199.08 248.612 198.888 250.148 198.632C251.748 198.376 253.156 198.024 254.372 197.576C255.652 197.064 256.292 196.424 256.292 195.656C256.292 195.528 255.62 195.144 254.276 194.504C252.996 193.8 251.044 192.648 248.42 191.048C246.372 189.768 244.932 188.488 244.1 187.208C243.268 185.864 242.852 184.072 242.852 181.832C242.852 180.424 243.14 179.272 243.716 178.376C244.356 177.48 245.188 176.776 246.212 176.264C247.3 175.752 248.516 175.4 249.86 175.208C251.268 174.952 252.74 174.824 254.276 174.824C254.404 174.824 254.788 174.888 255.428 175.016C256.132 175.144 256.868 175.368 257.636 175.688C258.404 175.944 259.076 176.296 259.652 176.744C260.292 177.128 260.612 177.576 260.612 178.088C260.612 178.216 260.484 178.408 260.228 178.664C260.036 178.92 259.684 179.4 259.172 180.104C258.98 180.04 258.628 179.944 258.116 179.816C257.668 179.688 257.124 179.56 256.484 179.432C255.908 179.24 255.3 179.112 254.66 179.048C254.02 178.92 253.508 178.856 253.124 178.856C251.46 178.856 250.116 179.176 249.092 179.816C248.068 180.392 247.556 181.544 247.556 183.272C247.556 184.104 247.876 184.872 248.516 185.576C249.22 186.28 250.084 186.952 251.108 187.592C252.132 188.168 253.22 188.776 254.372 189.416C255.588 189.992 256.708 190.632 257.732 191.336C258.756 192.04 259.588 192.808 260.228 193.64C260.932 194.408 261.284 195.304 261.284 196.328ZM291.096 196.328C291.096 197.416 290.712 198.376 289.944 199.208C289.24 199.976 288.312 200.648 287.16 201.224C286.072 201.736 284.856 202.152 283.512 202.472C282.168 202.792 280.888 203.048 279.672 203.24C278.456 203.368 277.368 203.464 276.408 203.528C275.512 203.528 274.936 203.528 274.68 203.528C273.272 203.528 272.184 203.304 271.416 202.856C270.648 202.408 270.264 201.608 270.264 200.456C270.264 200.072 270.296 199.752 270.36 199.496C270.424 199.176 270.68 199.016 271.128 199.016C271.32 199.016 271.64 199.08 272.088 199.208C272.536 199.272 272.888 199.304 273.144 199.304C273.4 199.304 274.2 199.272 275.544 199.208C276.952 199.08 278.424 198.888 279.96 198.632C281.56 198.376 282.968 198.024 284.184 197.576C285.464 197.064 286.104 196.424 286.104 195.656C286.104 195.528 285.432 195.144 284.088 194.504C282.808 193.8 280.856 192.648 278.232 191.048C276.184 189.768 274.744 188.488 273.912 187.208C273.08 185.864 272.664 184.072 272.664 181.832C272.664 180.424 272.952 179.272 273.528 178.376C274.168 177.48 275 176.776 276.024 176.264C277.112 175.752 278.328 175.4 279.672 175.208C281.08 174.952 282.552 174.824 284.088 174.824C284.216 174.824 284.6 174.888 285.24 175.016C285.944 175.144 286.68 175.368 287.448 175.688C288.216 175.944 288.888 176.296 289.464 176.744C290.104 177.128 290.424 177.576 290.424 178.088C290.424 178.216 290.296 178.408 290.04 178.664C289.848 178.92 289.496 179.4 288.984 180.104C288.792 180.04 288.44 179.944 287.928 179.816C287.48 179.688 286.936 179.56 286.296 179.432C285.72 179.24 285.112 179.112 284.472 179.048C283.832 178.92 283.32 178.856 282.936 178.856C281.272 178.856 279.928 179.176 278.904 179.816C277.88 180.392 277.368 181.544 277.368 183.272C277.368 184.104 277.688 184.872 278.328 185.576C279.032 186.28 279.896 186.952 280.92 187.592C281.944 188.168 283.032 188.776 284.184 189.416C285.4 189.992 286.52 190.632 287.544 191.336C288.568 192.04 289.4 192.808 290.04 193.64C290.744 194.408 291.096 195.304 291.096 196.328Z" fill="white"/>
</svg>
