<svg width="2000" height="2000" version="1.1" xmlns="http://www.w3.org/2000/svg" desc="Created with imagetracer.js version 1.2.6" ><path fill="rgb(0,172,0)" stroke="rgb(0,172,0)" stroke-width="1" opacity="0.9725490196078431" d="M 1382.5 919 L 1393.5 919 L 1410.5 923 Q 1431.2 931.8 1445 947.5 L 1448 955.5 L 1448 961.5 L 1445 970.5 L 1439.5 976 Q 1435.2 980.2 1426.5 980 L 1419.5 978 L 1403.5 965 L 1395.5 962 L 1390.5 962 Q 1384 963.5 1381 968.5 Q 1376.5 975 1375 984.5 L 1373 1017.5 L 1374 1021 L 1402.5 1019 L 1410.5 1017 Q 1411.8 1019.3 1416.5 1018 L 1422.5 1021 L 1427 1025.5 Q 1431 1030.5 1431 1039.5 Q 1429 1051.5 1420.5 1057 L 1404.5 1060 L 1382.5 1061 L 1378 1062 L 1385 1096.5 L 1392 1120.5 L 1392 1126.5 Q 1390.1 1135.1 1384.5 1140 Q 1379.2 1145.7 1366.5 1144 Q 1359.8 1141.8 1356 1136.5 L 1353 1131.5 L 1349 1117.5 L 1338 1066.5 L 1336 1045.5 L 1335 1044.5 L 1335 1035.5 L 1334 1034.5 L 1334 1014.5 L 1333 1009.5 L 1334 1008.5 L 1335 981.5 L 1340 958.5 Q 1346.2 940.2 1359.5 929 Q 1368.5 921.5 1382.5 919 Z " /><path fill="rgb(0,172,0)" stroke="rgb(0,172,0)" stroke-width="1" opacity="0.9725490196078431" d="M 877.5 925 L 891.5 926 L 904.5 929 L 927.5 937 L 936 942 L 942 953.5 L 942 963.5 Q 939.5 972.5 932.5 977 L 926.5 980 L 918.5 980 L 894.5 971 L 881.5 969 L 877 972.5 L 876 974.5 L 876 1005.5 L 875 1009 L 884.5 1007 L 906.5 1006 Q 915 1007.5 919 1013.5 Q 924.7 1019.8 923 1033.5 Q 921.2 1041.7 915.5 1046 L 907.5 1050 L 890.5 1050 L 875 1053 L 877 1074.5 L 881.5 1084 L 887.5 1085 L 895.5 1082 L 922.5 1065 L 934.5 1064 L 945 1070.5 L 950 1080.5 L 950 1088.5 Q 948.3 1099.3 940.5 1104 L 931.5 1109 L 903.5 1131 L 887.5 1138 L 874.5 1138 Q 859.1 1133.4 851 1121.5 L 841 1100.5 L 836 1075.5 L 836 1065.5 L 835 1064.5 L 835 1005.5 L 836 1004.5 L 836 970.5 Q 838.5 969 837 963.5 Q 840.7 945.2 852.5 935 L 864.5 928 L 877.5 925 Z " /><path fill="rgb(0,172,0)" stroke="rgb(0,172,0)" stroke-width="1" opacity="0.9725490196078431" d="M 1501.5 925 L 1516.5 926 Q 1519.4 928.6 1525.5 928 L 1551.5 937 L 1562 944.5 Q 1568 950.5 1566 964.5 L 1559 976 L 1550.5 980 L 1543.5 980 L 1518.5 971 L 1505.5 969 L 1501 972.5 L 1500 975.5 L 1500 1008.5 L 1501.5 1008 L 1518.5 1007 L 1519.5 1006 L 1530.5 1006 Q 1539.8 1007.8 1544 1014.5 Q 1548.9 1021 1547 1034.5 Q 1544.5 1042.5 1538.5 1047 L 1531.5 1050 L 1514.5 1050 L 1499 1053 L 1501 1073.5 L 1505 1084 L 1511.5 1085 L 1521.5 1081 L 1544.5 1066 Q 1549.9 1062.9 1559.5 1064 L 1570 1071.5 Q 1575.8 1077.2 1574 1090.5 Q 1571.5 1099.5 1564.5 1104 L 1558.5 1107 Q 1541.9 1121.9 1522.5 1134 L 1511.5 1138 L 1498.5 1138 Q 1484.1 1133.4 1476 1122.5 L 1468 1108.5 L 1461 1081.5 L 1460 1062.5 L 1459 1061.5 L 1459 1012.5 L 1460 1011.5 L 1460 972.5 L 1463 956.5 Q 1467.9 941.4 1479.5 933 L 1488.5 928 L 1501.5 925 Z " /><path fill="rgb(0,172,0)" stroke="rgb(0,172,0)" stroke-width="1" opacity="0.9725490196078431" d="M 785.5 926 Q 797.9 926.1 803 933.5 L 807 941.5 L 807 951.5 L 808 952.5 L 808 954.5 L 809 1029.5 L 808 1030.5 L 808 1056.5 L 807 1057.5 L 807 1070.5 L 806 1071.5 L 805 1085.5 L 799 1105.5 L 788.5 1121 L 775.5 1129 L 765.5 1130 L 757.5 1128 L 750.5 1124 L 738 1111.5 Q 722 1090.5 711 1064.5 L 691.5 1013 L 690 1016.5 L 690 1089.5 L 691 1090.5 L 691 1114.5 L 692 1115.5 L 693 1132.5 L 691 1141.5 L 684.5 1150 L 679.5 1153 L 672.5 1154 Q 661.2 1152.3 656 1144.5 L 653 1134.5 L 652 1115.5 L 651 1114.5 L 651 1097.5 L 650 1096.5 L 648 972.5 L 651 960.5 L 655 952.5 L 664.5 942 Q 670.7 935.2 685.5 937 Q 698.7 941.3 706 951.5 L 718 971.5 L 745 1040.5 L 759 1069.5 L 764.5 1078 L 767 1063.5 L 767 1055.5 L 768 1054.5 L 769 1004.5 L 768 1003.5 L 767 942.5 L 773.5 931 L 780.5 927 L 785.5 926 Z " /><path fill="rgb(0,172,0)" stroke="rgb(0,172,0)" stroke-width="1" opacity="0.9725490196078431" d="M 1113.5 926 Q 1124.3 926.3 1130 931 L 1136 942.5 L 1137 1048.5 L 1136 1049.5 L 1135 1075.5 L 1131 1096.5 Q 1126.1 1114.1 1113.5 1124 L 1104.5 1129 L 1093.5 1130 Q 1077.4 1126.1 1069 1114.5 Q 1051.7 1092.8 1040 1065.5 L 1019.5 1012 L 1019 1101.5 L 1020 1102.5 L 1021 1136.5 Q 1019 1146.5 1011.5 1151 L 1001.5 1154 L 993.5 1152 L 987 1148 L 982 1136.5 L 981 1120.5 L 980 1119.5 L 980 1105.5 L 979 1104.5 L 978 1020.5 L 977 1019.5 L 977 969.5 Q 981 950.5 994.5 941 Q 1000.8 935.3 1014.5 937 Q 1025.6 940.4 1032 948.5 L 1039 957.5 L 1048 974.5 L 1071 1034.5 L 1087 1068.5 L 1092.5 1077 L 1095 1068.5 L 1096 1050.5 L 1097 1049.5 L 1097 980.5 L 1096 979.5 L 1096 941.5 Q 1097.9 933.9 1103.5 930 L 1113.5 926 Z " /><path fill="rgb(0,172,0)" stroke="rgb(0,172,0)" stroke-width="1" opacity="0.9725490196078431" d="M 517.5 930 Q 530.1 930.4 535 938.5 L 538 944.5 Q 536.5 950 539 951.5 L 535 969.5 L 535 974.5 L 532 987.5 L 532 994.5 L 531 995.5 L 531 1002.5 L 530 1003.5 L 529 1025.5 L 528 1026.5 L 528 1053.5 L 529 1054.5 L 529 1063.5 L 533 1079.5 L 541.5 1092 Q 544.7 1094.3 551.5 1093 Q 559 1090 563 1083.5 L 573 1064.5 L 580 1036.5 L 581 1019.5 L 582 1018.5 L 582 978.5 L 581 977.5 L 579 950.5 Q 581.3 943.8 586.5 940 L 594.5 936 L 604.5 936 L 614 941 L 618 947.5 L 621 960.5 L 622 980.5 L 623 981.5 L 623 1018.5 L 622 1019.5 L 622 1030.5 L 621 1031.5 L 621 1039.5 L 620 1040.5 L 619 1051.5 L 610 1084.5 Q 600.4 1109.9 581.5 1126 Q 573.1 1133.1 561.5 1137 L 552.5 1139 L 539.5 1139 Q 517.9 1134.1 507 1118.5 L 495 1095.5 L 489 1071.5 Q 490.8 1065.3 488 1063.5 L 488 1017.5 L 489 1016.5 L 491 989.5 L 492 988.5 L 492 982.5 L 498 952.5 L 498 947.5 Q 499.8 938.3 506.5 934 L 517.5 930 Z " /><path fill="rgb(0,172,0)" stroke="rgb(0,172,0)" stroke-width="1" opacity="0.9725490196078431" d="M 1669.5 930 L 1680.5 930 Q 1687.9 932.1 1692 937.5 L 1696 946.5 L 1696 953.5 Q 1693.9 961.9 1687.5 966 L 1681.5 969 L 1667.5 971 L 1652 981 L 1642 995.5 L 1640 1002.5 L 1640 1008.5 Q 1643.6 1023.9 1654.5 1032 L 1688.5 1056 L 1700 1066.5 L 1711 1083.5 Q 1714.4 1091.1 1713 1103.5 Q 1708.9 1120.9 1696.5 1130 Q 1680.7 1141.2 1651.5 1139 L 1614.5 1132 L 1606 1125.5 L 1602 1116.5 L 1602 1109.5 Q 1603.8 1100.3 1610.5 1096 Q 1615.6 1091.7 1626.5 1093 L 1645.5 1098 L 1660.5 1099 L 1666 1096.5 L 1665 1091.5 L 1655.5 1082 L 1629.5 1064 L 1615 1049.5 Q 1606.2 1039.3 1601 1025.5 L 1598 1012.5 L 1598 1000.5 Q 1604.5 971 1623.5 954 Q 1641 936.5 1669.5 930 Z " /><path fill="rgb(0,172,0)" stroke="rgb(0,172,0)" stroke-width="1" opacity="0.9725490196078431" d="M 1191.5 931 Q 1201 930 1205.5 934 L 1218.5 931 L 1230.5 931 L 1246.5 934 L 1262.5 941 Q 1276.4 949 1286 961.5 Q 1297.8 976.2 1304 996.5 L 1308 1015.5 L 1309 1039.5 L 1308 1040.5 L 1307 1055.5 L 1300 1078.5 Q 1290.1 1100.6 1272.5 1115 Q 1259.8 1124.8 1243.5 1131 L 1224.5 1136 L 1203.5 1138 L 1202.5 1137 L 1194.5 1137 L 1184.5 1134 L 1171 1122.5 L 1166 1112.5 L 1164 1104.5 Q 1165.3 1099.8 1163 1098.5 L 1163 1077.5 L 1164 1076.5 L 1164 1067.5 L 1165 1066.5 L 1166 1049.5 L 1167 1048.5 L 1168 1032.5 L 1169 1031.5 L 1170 1015.5 L 1171 1014.5 L 1171 1005.5 L 1172 1004.5 L 1173 981.5 L 1174 980.5 L 1175 945.5 Q 1177.1 937.6 1183.5 934 L 1191.5 931 Z M 1223 973 L 1222 974 L 1215 974 L 1214 977 L 1213 1000 L 1212 1001 L 1208 1043 L 1207 1044 L 1205 1073 L 1204 1074 L 1204 1088 L 1203 1089 L 1204 1096 L 1217 1095 L 1228 1092 L 1244 1083 L 1259 1066 L 1265 1052 L 1268 1035 Q 1269 1002 1253 986 Q 1247 979 1238 975 L 1223 973 Z " /><path fill="rgb(0,172,0)" stroke="rgb(0,172,0)" stroke-width="1" opacity="0.9725490196078431" d="M 363.5 970 L 375.5 971 L 384 978.5 Q 387.2 982.8 387 990.5 L 379 1024.5 L 378 1046.5 L 380 1055.5 L 383.5 1061 L 390.5 1062 L 401 1052.5 L 407 1043.5 L 417 1022.5 L 429 985.5 L 436.5 975 L 441.5 972 L 447.5 971 L 455.5 973 L 463 979.5 L 466 987.5 L 466 994.5 L 459 1023.5 L 459 1028.5 L 455 1044.5 L 455 1049.5 L 448 1086.5 L 444 1122.5 L 443 1123.5 L 442 1140.5 L 441 1141.5 L 438 1182.5 Q 436 1192.5 428.5 1197 Q 423.8 1200.3 414.5 1199 Q 407.1 1196.4 403 1190.5 L 401 1186.5 L 401 1171.5 L 402 1170.5 L 404 1140.5 L 405 1139.5 L 405 1131.5 L 406 1130.5 L 406 1123.5 L 407 1122.5 L 410 1095.5 L 408.5 1096 Q 397.7 1105.7 378.5 1107 L 364.5 1103 L 351 1091.5 Q 344.7 1082.8 342 1070.5 L 340 1046.5 L 341 1045.5 L 342 1023.5 L 347 995.5 L 351 980.5 L 357.5 973 L 363.5 970 Z " /><path fill="rgb(0,172,0)" stroke="rgb(0,172,0)" stroke-width="1" opacity="0.9725490196078431" d="M 1803.5 977 Q 1813.8 975.7 1820.5 978 L 1829 985.5 Q 1832.6 990.9 1831 1001.5 L 1823.5 1011 L 1815.5 1014 L 1808.5 1014 L 1801.5 1016 L 1791 1023.5 L 1790 1032.5 L 1795 1041.5 Q 1811.6 1056.4 1825 1074.5 L 1831 1088.5 L 1832 1103.5 Q 1828.9 1121.9 1816.5 1131 L 1806.5 1137 L 1787.5 1143 L 1773.5 1144 L 1772.5 1145 L 1756.5 1145 L 1742.5 1141 L 1736 1134.5 Q 1733 1130.5 1734 1122.5 Q 1736.4 1113.4 1743.5 1109 Q 1748.6 1105.6 1758.5 1107 L 1759.5 1108 L 1777.5 1108 L 1786.5 1106 L 1792 1102.5 L 1793 1096.5 L 1789 1088.5 L 1768 1066.5 L 1760 1055.5 L 1753 1037.5 L 1753 1021.5 Q 1757.8 1002.3 1771.5 992 Q 1783.8 980.8 1803.5 977 Z " /><path fill="rgb(0,0,0)" stroke="rgb(0,0,0)" stroke-width="1" opacity="0" d="M 0 0 L 2048 0 L 2048 2048 L 0 2048 L 0 0 Z M 1383 919 Q 1368 921 1360 929 Q 1346 940 1340 959 L 1335 982 L 1334 1009 L 1333 1010 L 1334 1015 L 1334 1035 L 1335 1036 L 1335 1045 L 1336 1046 L 1338 1067 L 1349 1118 L 1353 1132 L 1356 1137 Q 1360 1142 1367 1144 Q 1379 1146 1385 1140 Q 1390 1135 1392 1127 L 1392 1121 L 1385 1097 L 1378 1062 L 1383 1061 L 1405 1060 L 1421 1057 Q 1429 1052 1431 1040 Q 1431 1031 1427 1026 L 1423 1021 L 1417 1018 Q 1412 1019 1411 1017 L 1403 1019 L 1374 1021 L 1373 1018 L 1375 985 Q 1377 975 1381 969 Q 1384 964 1391 962 L 1396 962 L 1404 965 L 1420 978 L 1427 980 Q 1435 980 1440 976 L 1445 971 L 1448 962 L 1448 956 L 1445 948 Q 1431 932 1411 923 L 1394 919 L 1383 919 Z M 878 925 L 865 928 L 853 935 Q 841 945 837 964 Q 839 969 836 971 L 836 1005 L 835 1006 L 835 1065 L 836 1066 L 836 1076 L 841 1101 L 851 1122 Q 859 1133 875 1138 L 888 1138 L 904 1131 L 932 1109 L 941 1104 Q 948 1099 950 1089 L 950 1081 L 945 1071 L 935 1064 L 923 1065 L 896 1082 L 888 1085 L 882 1084 L 877 1075 L 875 1053 L 891 1050 L 908 1050 L 916 1046 Q 921 1042 923 1034 Q 925 1020 919 1014 Q 915 1007 907 1006 L 885 1007 L 875 1009 L 876 1006 L 876 975 L 877 973 L 882 969 L 895 971 L 919 980 L 927 980 L 933 977 Q 940 973 942 964 L 942 954 L 936 942 L 928 937 L 905 929 L 892 926 L 878 925 Z M 1502 925 L 1489 928 L 1480 933 Q 1468 941 1463 957 L 1460 973 L 1460 1012 L 1459 1013 L 1459 1062 L 1460 1063 L 1461 1082 L 1468 1109 L 1476 1123 Q 1484 1133 1499 1138 L 1512 1138 L 1523 1134 Q 1542 1122 1559 1107 L 1565 1104 Q 1572 1100 1574 1091 Q 1576 1077 1570 1072 L 1560 1064 Q 1550 1063 1545 1066 L 1522 1081 L 1512 1085 L 1505 1084 L 1501 1074 L 1499 1053 L 1515 1050 L 1532 1050 L 1539 1047 Q 1544 1043 1547 1035 Q 1549 1021 1544 1015 Q 1540 1008 1531 1006 L 1520 1006 L 1519 1007 L 1502 1008 L 1500 1009 L 1500 976 L 1501 973 L 1506 969 L 1519 971 L 1544 980 L 1551 980 L 1559 976 L 1566 965 Q 1568 951 1562 945 L 1552 937 L 1526 928 Q 1519 929 1517 926 L 1502 925 Z M 786 926 L 781 927 L 774 931 L 767 943 L 768 1004 L 769 1005 L 768 1055 L 767 1056 L 767 1064 L 765 1078 L 759 1070 L 745 1041 L 718 972 L 706 952 Q 699 941 686 937 Q 671 935 665 942 L 655 953 L 651 961 L 648 973 L 650 1097 L 651 1098 L 651 1115 L 652 1116 L 653 1135 L 656 1145 Q 661 1152 673 1154 L 680 1153 L 685 1150 L 691 1142 L 693 1133 L 692 1116 L 691 1115 L 691 1091 L 690 1090 L 690 1017 L 692 1013 L 711 1065 Q 722 1090 738 1112 L 751 1124 L 758 1128 L 766 1130 L 776 1129 L 789 1121 L 799 1106 L 805 1086 L 806 1072 L 807 1071 L 807 1058 L 808 1057 L 808 1031 L 809 1030 L 808 955 L 808 953 L 807 952 L 807 942 L 803 934 Q 798 926 786 926 Z M 1114 926 L 1104 930 Q 1098 934 1096 942 L 1096 980 L 1097 981 L 1097 1050 L 1096 1051 L 1095 1069 L 1093 1077 L 1087 1069 L 1071 1035 L 1048 975 L 1039 958 L 1032 949 Q 1026 940 1015 937 Q 1001 935 995 941 Q 981 951 977 970 L 977 1020 L 978 1021 L 979 1105 L 980 1106 L 980 1120 L 981 1121 L 982 1137 L 987 1148 L 994 1152 L 1002 1154 L 1012 1151 Q 1019 1146 1021 1137 L 1020 1103 L 1019 1102 L 1020 1012 L 1040 1066 Q 1052 1093 1069 1115 Q 1077 1126 1094 1130 L 1105 1129 L 1114 1124 Q 1126 1114 1131 1097 L 1135 1076 L 1136 1050 L 1137 1049 L 1136 943 L 1130 931 Q 1124 926 1114 926 Z M 518 930 L 507 934 Q 500 938 498 948 L 498 953 L 492 983 L 492 989 L 491 990 L 489 1017 L 488 1018 L 488 1064 Q 491 1065 489 1072 L 495 1096 L 507 1119 Q 518 1134 540 1139 L 553 1139 L 562 1137 Q 573 1133 582 1126 Q 600 1110 610 1085 L 619 1052 L 620 1041 L 621 1040 L 621 1032 L 622 1031 L 622 1020 L 623 1019 L 623 982 L 622 981 L 621 961 L 618 948 L 614 941 L 605 936 L 595 936 L 587 940 Q 581 944 579 951 L 581 978 L 582 979 L 582 1019 L 581 1020 L 580 1037 L 573 1065 L 563 1084 Q 559 1090 552 1093 Q 545 1094 542 1092 L 533 1080 L 529 1064 L 529 1055 L 528 1054 L 528 1027 L 529 1026 L 530 1004 L 531 1003 L 531 996 L 532 995 L 532 988 L 535 975 L 535 970 L 539 952 Q 537 950 538 945 L 535 939 Q 530 930 518 930 Z M 1670 930 Q 1641 936 1624 954 Q 1605 971 1598 1001 L 1598 1013 L 1601 1026 Q 1606 1039 1615 1050 L 1630 1064 L 1656 1082 L 1665 1092 L 1666 1097 L 1661 1099 L 1646 1098 L 1627 1093 Q 1616 1092 1611 1096 Q 1604 1100 1602 1110 L 1602 1117 L 1606 1126 L 1615 1132 L 1652 1139 Q 1681 1141 1697 1130 Q 1709 1121 1713 1104 Q 1714 1091 1711 1084 L 1700 1067 L 1689 1056 L 1655 1032 Q 1644 1024 1640 1009 L 1640 1003 L 1642 996 L 1652 981 L 1668 971 L 1682 969 L 1688 966 Q 1694 962 1696 954 L 1696 947 L 1692 938 Q 1688 932 1681 930 L 1670 930 Z M 1192 931 L 1184 934 Q 1177 938 1175 946 L 1174 981 L 1173 982 L 1172 1005 L 1171 1006 L 1171 1015 L 1170 1016 L 1169 1032 L 1168 1033 L 1167 1049 L 1166 1050 L 1165 1067 L 1164 1068 L 1164 1077 L 1163 1078 L 1163 1099 Q 1165 1100 1164 1105 L 1166 1113 L 1171 1123 L 1185 1134 L 1195 1137 L 1203 1137 L 1204 1138 L 1225 1136 L 1244 1131 Q 1260 1125 1273 1115 Q 1290 1101 1300 1079 L 1307 1056 L 1308 1041 L 1309 1040 L 1308 1016 L 1304 997 Q 1298 976 1286 962 Q 1276 949 1263 941 L 1247 934 L 1231 931 L 1219 931 L 1206 934 Q 1201 930 1192 931 Z M 364 970 L 358 973 L 351 981 L 347 996 L 342 1024 L 341 1046 L 340 1047 L 342 1071 Q 345 1083 351 1092 L 365 1103 L 379 1107 Q 398 1106 409 1096 L 410 1096 L 407 1123 L 406 1124 L 406 1131 L 405 1132 L 405 1140 L 404 1141 L 402 1171 L 401 1172 L 401 1187 L 403 1191 Q 407 1196 415 1199 Q 424 1200 429 1197 Q 436 1192 438 1183 L 441 1142 L 442 1141 L 443 1124 L 444 1123 L 448 1087 L 455 1050 L 455 1045 L 459 1029 L 459 1024 L 466 995 L 466 988 L 463 980 L 456 973 L 448 971 L 442 972 L 437 975 L 429 986 L 417 1023 L 407 1044 L 401 1053 L 391 1062 L 384 1061 L 380 1056 L 378 1047 L 379 1025 L 387 991 Q 387 983 384 979 L 376 971 L 364 970 Z M 1804 977 Q 1784 981 1772 992 Q 1758 1002 1753 1022 L 1753 1038 L 1760 1056 L 1768 1067 L 1789 1089 L 1793 1097 L 1792 1103 L 1787 1106 L 1778 1108 L 1760 1108 L 1759 1107 Q 1749 1106 1744 1109 Q 1736 1113 1734 1123 Q 1733 1131 1736 1135 L 1743 1141 L 1757 1145 L 1773 1145 L 1774 1144 L 1788 1143 L 1807 1137 L 1817 1131 Q 1829 1122 1832 1104 L 1831 1089 L 1825 1075 Q 1812 1056 1795 1042 L 1790 1033 L 1791 1024 L 1802 1016 L 1809 1014 L 1816 1014 L 1824 1011 L 1831 1002 Q 1833 991 1829 986 L 1821 978 Q 1814 976 1804 977 Z " /><path fill="rgb(0,0,0)" stroke="rgb(0,0,0)" stroke-width="1" opacity="0" d="M 1222.5 973 L 1237.5 975 Q 1247 978.5 1253 985.5 Q 1268.6 1001.9 1268 1034.5 L 1265 1051.5 L 1259 1065.5 L 1243.5 1083 L 1227.5 1092 L 1216.5 1095 L 1204 1096 L 1203 1088.5 L 1204 1087.5 L 1204 1073.5 L 1205 1072.5 L 1207 1043.5 L 1208 1042.5 L 1212 1000.5 L 1213 999.5 L 1214 976.5 L 1215 974 L 1221.5 974 L 1222.5 973 Z " /></svg>